<?xml version="1.0" encoding="utf-8"?>
<?xml-stylesheet type="text/xsl" href="rss1.xsl"?>
<rss version="2.0" xmlns:atom="http://www.w3.org/2005/Atom" xmlns:content="http://purl.org/rss/1.0/modules/content/" xmlns:dc="http://purl.org/dc/elements/1.1/" xmlns:media="http://search.yahoo.com/mrss/">
<channel>
 <title>Getty</title>
 <link>http://www.gettyimg.com/</link>
 <atom:link href="http://www.gettyimg.com/" rel="self" type="application/rss+xml" />

 
                <item>
                <title><![CDATA[【Requests】[REQ AUD] - Nocturnal Rites (2 albums)]]></title>
                <link><![CDATA[https://sharemania.us/threads/nocturnal-rites-2-albums.243449/]]></link>
                <description><![CDATA[<article>
<blockquote class="messageText SelectQuoteContainer ugc baseHtml">
Looking for these albums by Nocturnal Rites.<br>
Thank you!<br>
<br>
Grand Illusion<br>
<a href="https://www.qobuz.com/be-nl/album/grand-illusion-nocturnal-rites/0886443600119" target="_blank" class="externalLink" rel="nofollow">https://www.qobuz.com/be-nl/album/grand-illusion-nocturnal-rites/0886443600119</a><br>
<br>
The 8th Sin<br>
<a href="https://www.qobuz.com/be-nl/album/the-8th-sin-nocturnal-rites/0886443596900" target="_blank" class="externalLink" rel="nofollow">https://www.qobuz.com/be-nl/album/the-8th-sin-nocturnal-rites/0886443596900</a>
<div class="messageTextEndMarker">&nbsp;</div>
</blockquote>
</article>]]></description>
                <author><![CDATA[deltaembryo]]></author>
                </item>

                
                <item>
                <title><![CDATA[【Requests】[REQ VID] - Alicia Keys - Good Morning America - Dec. 2, 2003]]></title>
                <link><![CDATA[https://sharemania.us/threads/alicia-keys-good-morning-america-dec-2-2003.243448/]]></link>
                <description><![CDATA[<article>
<blockquote class="messageText SelectQuoteContainer ugc baseHtml">
<a href="https://www.goodmorningamerica.com/news/video/dec-2003-alicia-keys-talks-future-aspirations-52474323" target="_blank" class="externalLink" rel="nofollow">https://www.goodmorningamerica.com/news/video/dec-2003-alicia-keys-talks-future-aspirations-52474323</a>
<div class="messageTextEndMarker">&nbsp;</div>
</blockquote>
</article>]]></description>
                <author><![CDATA[Mr.Man]]></author>
                </item>

                
                <item>
                <title><![CDATA[【Apple Music】WEB-RiP - Linkin Park - Somewhere I Belong [Apple Music WEB-DL 1080p HD]]]></title>
                <link><![CDATA[https://sharemania.us/threads/linkin-park-somewhere-i-belong-apple-music-web-dl-1080p-hd.243450/]]></link>
                <description><![CDATA[<article>
<blockquote class="messageText SelectQuoteContainer ugc baseHtml">
<span style="font-size: 22px"><b>Linkin Park - Somewhere I Belong [Apple Music WEB-DL 1080p HD]</b></span><br>
<br>
<img src="https://imgur.com/86OmJXq.jpg" class="bbCodeImage LbImage" alt="[​IMG]" data-url="https://imgur.com/86OmJXq.jpg" style=""><br>
<br>
<div class="bbCodeBlock bbCodeCode">
<div class="type">Code:</div>
<pre>General
Format                         : MPEG-4
Codec ID                       : M4V  (isom/iso4/M4V /mp42)
File size                      : 273 MiB
Duration                       : 3 min 45 s
Overall bit rate mode          : Variable
Overall bit rate               : 10.1 Mb/s
Movie name                     : Somewhere I Belong (4K UPGRADE)
Performer                      : LINKIN PARK
Genre                          : Alternative
ContentType                    : Music Video
Recorded date                  : UTC 2007-03-05 08:00:00
Encoded date                   : UTC 2024-03-15 22:28:22
Tagged date                    : UTC 2024-03-15 22:28:22
Copyright                      : ℗ © 2003 Warner Records Inc.
Cover                          : Yes
Rating                         : None
GenreID                        : 1620
AppleStoreCountry              : Canada
AlbumTitleID                   : 148662
AppleStoreCatalogID            : 1677893648

Video
ID                             : 2
Format                         : AVC
Format/Info                    : Advanced Video Codec
Format profile                 : High@L4
Format settings                : CABAC / 4 Ref Frames
Format settings, CABAC         : Yes
Format settings, Reference fra : 4 frames
Codec ID                       : avc1
Codec ID/Info                  : Advanced Video Coding
Duration                       : 3 min 45 s
Bit rate                       : 9 860 kb/s
Maximum bit rate               : 23.7 Mb/s
Width                          : 1 920 pixels
Height                         : 972 pixels
Display aspect ratio           : 1.975
Frame rate mode                : Constant
Frame rate                     : 23.976 (24000/1001) FPS
Color space                    : YUV
Chroma subsampling             : 4:2:0
Bit depth                      : 8 bits
Scan type                      : Progressive
Bits/(Pixel*Frame)             : 0.220
Stream size                    : 265 MiB (97%)
Title                          : Core Media Video
Encoded date                   : UTC 2024-02-14 04:30:33
Tagged date                    : UTC 2024-03-15 22:28:38
Color range                    : Limited
Color primaries                : BT.709
Transfer characteristics       : BT.709
Matrix coefficients            : BT.709
Codec configuration box        : avcC

Audio
ID                             : 1
Format                         : AAC LC
Format/Info                    : Advanced Audio Codec Low Complexity
Codec ID                       : mp4a-40-2
Duration                       : 3 min 45 s
Duration_LastFrame             : -2 ms
Bit rate mode                  : Variable
Bit rate                       : 265 kb/s
Maximum bit rate               : 443 kb/s
Channel(s)                     : 2 channels
Channel layout                 : L R
Sampling rate                  : 48.0 kHz
Frame rate                     : 46.875 FPS (1024 SPF)
Compression mode               : Lossy
Stream size                    : 7.23 MiB (3%)
Title                          : Core Media Audio
Encoded date                   : UTC 2024-02-14 04:30:08
Tagged date                    : UTC 2024-03-15 22:28:38
</pre>
</div>
<div class="bbCodeBlock bbCodeVfcHH HiddenContent">
<div class="attribution type">Hidden Content:</div>
<blockquote>You must reply before you can see the hidden data contained here.</blockquote>
</div>
<div class="messageTextEndMarker">&nbsp;</div>
</blockquote>
</article>]]></description>
                <author><![CDATA[Ron001]]></author>
                </item>

                </channel></rss>